<svg viewBox="0 0 24 24" fill="none" xmlns="http://www.w3.org/2000/svg">
<path d="M17 19C17 19.5523 17.4477 20 18 20C18.5523 20 19 19.5523 19 19H17ZM5 19C5 19.5523 5.44772 20 6 20C6.55228 20 7 19.5523 7 19H5ZM19 19C19 17.457 18.0619 16.1826 16.7973 15.3395C15.5258 14.4918 13.8267 14 12 14V16C13.487 16 14.7879 16.4036 15.6879 17.0036C16.5949 17.6083 17 18.3338 17 19H19ZM12 14C10.1733 14 8.47422 14.4918 7.20266 15.3395C5.93809 16.1826 5 17.457 5 19H7C7 18.3338 7.40506 17.6083 8.31206 17.0036C9.21207 16.4036 10.513 16 12 16V14ZM12 11C10.3431 11 9 9.65685 9 8H7C7 10.7614 9.23858 13 12 13V11ZM9 8C9 6.34315 10.3431 5 12 5V3C9.23858 3 7 5.23858 7 8H9ZM12 5C13.6569 5 15 6.34315 15 8H17C17 5.23858 14.7614 3 12 3V5ZM15 8C15 9.65685 13.6569 11 12 11V13C14.7614 13 17 10.7614 17 8H15Z" fill="currentColor"/>
</svg>
